<?xml version="1.0" encoding="UTF-8"?>
<svg version="1.1" xmlns="http://www.w3.org/2000/svg" width="150" height="150">
<path d="M0 0 C0.83265381 0.00523682 1.66530762 0.01047363 2.52319336 0.01586914 C3.42231445 0.0190918 4.32143555 0.02231445 5.24780273 0.02563477 C6.66609375 0.03820313 6.66609375 0.03820313 8.11303711 0.05102539 C9.06243164 0.05553711 10.01182617 0.06004883 10.98999023 0.06469727 C13.34356776 0.07652429 15.69702188 0.09300514 18.05053711 0.11352539 C18.54553711 1.10352539 18.54553711 1.10352539 19.05053711 2.11352539 C17.87320459 4.84772902 16.6300643 7.46478857 15.28100586 10.11352539 C14.88480545 10.90500977 14.48860504 11.69649414 14.08039856 12.51196289 C13.23918177 14.18834389 12.39406895 15.86277455 11.54541016 17.53540039 C10.24560911 20.09859349 8.95864273 22.66791506 7.67358398 25.23852539 C6.85597745 26.86390431 6.03764205 28.48891683 5.21850586 30.11352539 C4.83196335 30.88438477 4.44542084 31.65524414 4.04716492 32.44946289 C1.28267689 37.88138561 1.28267689 37.88138561 -0.94946289 40.11352539 C-2.9206543 40.34057617 -2.9206543 40.34057617 -5.30102539 40.30883789 C-6.15180664 40.30239258 -7.00258789 40.29594727 -7.87915039 40.28930664 C-8.76860352 40.27254883 -9.65805664 40.25579102 -10.57446289 40.23852539 C-11.92024414 40.22499023 -11.92024414 40.22499023 -13.29321289 40.21118164 C-15.51222875 40.18757509 -17.73071367 40.15464849 -19.94946289 40.11352539 C-21.22732567 36.27993706 -20.08018691 34.79669258 -18.34402466 31.31051636 C-17.75039627 30.15726364 -17.75039627 30.15726364 -17.14477539 28.98071289 C-16.74620331 28.18827179 -16.34763123 27.39583069 -15.9369812 26.57937622 C-14.65874063 24.04428496 -13.36655762 21.51657855 -12.07446289 18.98852539 C-11.21031235 17.27672437 -10.34702011 15.56448976 -9.48461914 13.85180664 C-2.5586367 0.14900013 -2.5586367 0.14900013 0 0 Z " fill="#6062E9" transform="translate(66.949462890625,49.886474609375)"/>
<path d="M0 0 C0.80244141 0.00966797 1.60488281 0.01933594 2.43164062 0.02929688 C3.68170898 0.06700195 3.68170898 0.06700195 4.95703125 0.10546875 C6.22450195 0.12577148 6.22450195 0.12577148 7.51757812 0.14648438 C9.60183509 0.18181076 11.68576402 0.23561736 13.76953125 0.29296875 C15.06516464 4.20886235 14.16423125 6.20190228 12.34220886 9.87869263 C11.97146744 10.59548187 11.60072601 11.31227112 11.21875 12.05078125 C10.65774345 13.16717484 10.65774345 13.16717484 10.08540344 14.30612183 C9.29308283 15.87732637 8.49501408 17.44564353 7.69165039 19.01123047 C6.461 21.41023217 5.24762112 23.81734648 4.03710938 26.2265625 C3.26531731 27.75180567 2.49256303 29.2765624 1.71875 30.80078125 C1.35408127 31.52161896 0.98941254 32.24245667 0.61369324 32.98513794 C-0.80712559 35.7472799 -2.01970835 38.08220835 -4.23046875 40.29296875 C-6.20166016 40.52001953 -6.20166016 40.52001953 -8.58203125 40.48828125 C-9.4328125 40.48183594 -10.28359375 40.47539063 -11.16015625 40.46875 C-12.04960938 40.45199219 -12.9390625 40.43523437 -13.85546875 40.41796875 C-15.20125 40.40443359 -15.20125 40.40443359 -16.57421875 40.390625 C-18.79323461 40.36701845 -21.01171952 40.33409185 -23.23046875 40.29296875 C-24.47259135 36.56660096 -23.50505789 35.24587553 -21.82879639 31.84619141 C-21.46119202 31.12737793 -21.09358765 30.40856445 -20.71484375 29.66796875 C-20.34321106 28.92466309 -19.97157837 28.18135742 -19.58868408 27.41552734 C-18.79972698 25.84297822 -18.0058664 24.27288115 -17.20751953 22.70507812 C-15.98812378 20.30801684 -14.78590546 17.90292887 -13.5859375 15.49609375 C-12.81741446 13.9695441 -12.04791493 12.44348557 -11.27734375 10.91796875 C-10.9178363 10.19915527 -10.55832886 9.4803418 -10.18792725 8.73974609 C-5.65283397 -0.12027306 -5.65283397 -0.12027306 0 0 Z " fill="#353982" transform="translate(98.23046875,49.70703125)"/>
<path d="M0 0 C0.83265381 0.00523682 1.66530762 0.01047363 2.52319336 0.01586914 C3.42231445 0.0190918 4.32143555 0.02231445 5.24780273 0.02563477 C6.66609375 0.03820313 6.66609375 0.03820313 8.11303711 0.05102539 C9.06243164 0.05553711 10.01182617 0.06004883 10.98999023 0.06469727 C13.34356776 0.07652429 15.69702188 0.09300514 18.05053711 0.11352539 C18.54553711 1.10352539 18.54553711 1.10352539 19.05053711 2.11352539 C17.87349011 4.85945993 16.63053786 7.48823208 15.28100586 10.14868164 C14.88480545 10.94253769 14.48860504 11.73639374 14.08039856 12.55430603 C13.23926112 14.23491816 12.39414648 15.91354463 11.54541016 17.59033203 C10.24419173 20.16385291 8.95802187 22.74448652 7.67358398 25.32641602 C6.85611405 26.95511795 6.03778327 28.58338816 5.21850586 30.21118164 C4.83196335 30.9872023 4.44542084 31.76322296 4.04716492 32.5627594 C1.28117605 37.99820592 1.28117605 37.99820592 -0.94946289 39.11352539 C0.46549865 34.49790849 2.3453299 30.25775696 4.52709961 25.96508789 C4.85721039 25.30769623 5.18732117 24.65030457 5.5274353 23.97299194 C6.57303108 21.89291222 7.62418181 19.81569895 8.67553711 17.73852539 C9.38944901 16.32074301 10.10299441 14.90277601 10.81616211 13.48461914 C12.55604988 10.02507485 14.30343601 6.5694699 16.05053711 3.11352539 C10.11053711 2.78352539 4.17053711 2.45352539 -1.94946289 2.11352539 C-2.60946289 4.09352539 -3.26946289 6.07352539 -3.94946289 8.11352539 C-5.05134674 10.50978057 -6.1757123 12.87025786 -7.35571289 15.22680664 C-7.68108032 15.88182663 -8.00644775 16.53684662 -8.3416748 17.2117157 C-9.02547617 18.58502771 -9.71133983 19.95731464 -10.39916992 21.32861328 C-11.4532847 23.43365747 -12.49656909 25.54384235 -13.53930664 27.65454102 C-14.20662739 28.9914532 -14.87457397 30.32805323 -15.54321289 31.66430664 C-15.8547229 32.29653641 -16.16623291 32.92876617 -16.48718262 33.58015442 C-18.7202418 37.99891485 -18.7202418 37.99891485 -20.94946289 39.11352539 C-19.4981661 34.35626732 -17.52677614 29.98990787 -15.28930664 25.56274414 C-14.76440392 24.51362602 -14.76440392 24.51362602 -14.22889709 23.4433136 C-13.49369005 21.97590438 -12.75655203 20.50946119 -12.01757812 19.04394531 C-10.88279267 16.79275248 -9.75453892 14.53837549 -8.62719727 12.28344727 C-7.91077934 10.8555227 -7.19399551 9.42778165 -6.47680664 8.00024414 C-5.96898903 6.98627815 -5.96898903 6.98627815 -5.45091248 5.951828 C-2.51852146 0.14666405 -2.51852146 0.14666405 0 0 Z " fill="#171B38" transform="translate(66.949462890625,49.886474609375)"/>
</svg>
